<svg id="Capa_1" data-name="Capa 1" xmlns="http://www.w3.org/2000/svg" viewBox="0 0 566.93 818.54"><defs><style>.cls-1{fill:#ffc239;}</style></defs><title>Mesa de trabajo 1</title><path class="cls-1" d="M515.46,104.84a11.94,11.94,0,0,0-1.34,1.17,10.26,10.26,0,0,0,3.05,1c-.39,2.58-3.23,2.61-4.8,1.2-2.07,3.13-3.1,6.88-5.38,10a18.3,18.3,0,0,1-13.45,7.52c-5.47.52-11.05-1.59-16.4.33-4.45,1.6-6.1,5.23-8.95,8.67-5.41,6.52-12.23,6.11-19.8,6.66a21.31,21.31,0,0,0-18.4,13c-2,4.61-2.67,9.67-5,14.18-3.58,7-9,10.29-15.26,14.45C389,197,389.91,226.2,389.88,248.37c0,15.79,2.15,31.6.89,47.38-.44,5.46-.86,11.54-1.78,17.57-.54,3.09-1.16,6.17-1.9,9.24a42.13,42.13,0,0,1-6.39,14c-6.7,9.08-17.94,14.85-29.11,15.79A38.83,38.83,0,0,1,335,350.26c-8.76-3.35-13.56-12.64-14.71-21.52a63.06,63.06,0,0,1,1.06-19.88c.06-.3.12-.6.18-.9,1.71-8.45,4.47-16.84,6.86-24.45,3.33-10.6,7.18-21,11.16-31.39a1.8,1.8,0,0,1-.33-1.75l.89.31,1.38-3.58c-.39-.24-.76-.48-1.11-.73l1.26.34,1.79-4.64c9.91-25.51,22.25-52.87,22-80.75a96.57,96.57,0,0,0-17.48-53.53,32.51,32.51,0,0,1-3.42-.12,3.36,3.36,0,0,1,2.4-1.32,87.55,87.55,0,0,0-9.22-10.73C329.43,87.47,319.49,81,308,78.81a75.49,75.49,0,0,0-17.08-1.2c.77.72,1.29,2,2.44,1.88,2.31,1.79-4.1,1.2-3.71-1.82a107.33,107.33,0,0,0-22.37,3.69c-23.31,6.32-48,18.88-60.61,40.39-11.25,19.15-12.46,43.55-9,65.61h0v0c.61,3.93,1.35,7.8,2.22,11.54,3.31,14.18,9.14,27.46,15.11,40.68s14.08,27.12,15.88,41.73c3.58,28.89-22.45,58.82-50.25,64.14-25.27,4.84-46.13-14.29-54.63-36.67a1.28,1.28,0,0,1-2.14-.92c.2-1.67.69-.91,1.62-.51a64.32,64.32,0,0,1-2.54-9.27c-4-20.91,2.7-39.71,12.53-57.22,0-1.08.4-2,1.22-2.14q1.2-2.07,2.44-4.12a3.29,3.29,0,0,1-.78.17c-.14-1.1,1-.66,1.45-1.3,0,0,0,0,0,0q2-3.27,4.1-6.48c.06-.47.08-.42.07-.11q1.93-3,3.88-5.9c-.74-1.11.24-1.65.93-1.39l.24-.36c14.5-21.7,27.64-43.41,31-69.78a74.93,74.93,0,0,0,.17-20.31c-1-6.75-3.66-12.86-6-19.23-.25-.69-.5-1.43-.76-2.19a10.28,10.28,0,0,1-1.48-5.67c.28-3.94.3-4-1.76-6.37a11,11,0,0,1-1.64-1.83,4.19,4.19,0,0,1-.55-2.55c-.07-.6-.13-1.19-.21-1.77A13.26,13.26,0,0,0,162.82,84c-2-1.19-8.06-1.5-10-1.57a50.23,50.23,0,0,1-10.9-4,38.34,38.34,0,0,1-7.41-5.27,28.74,28.74,0,0,1-3.66-4.34v0s-.07-.05-.09-.09a11.31,11.31,0,0,1-1-2.85,9.21,9.21,0,0,0-.78-1.64,3.74,3.74,0,0,0-1.79-1.2,14.3,14.3,0,0,0-3.65-.4l-1,0-.09,0h0a31.89,31.89,0,0,1-9.11-3.6c-2.54-1.54-4.57-2.25-6.68.34s-2,6.86-.54,9.61c2.11,4,6.8,5.33,10.7,7a88.4,88.4,0,0,1,18.68,10.61c2.87,2.17,5.8,3.72,2.33,7-2.84,2.68-8,4.43-11.57,6.1-7.15,3.34-14.24,5.16-21.83,7.16-1.85.49-4,1-4,3.33,0,1.34,1.07,2.28,1.76,3.29,3.28,4.81,4.68,9,2.24,14.68-.72,1.67-1.42,3.15-2,4.59h0l0,0a13,13,0,0,0-1.37,5.25,8.79,8.79,0,0,0,.85,4c1.15,2.13,2.73,4.54,6.55,4.15,0,0-5.11-1.64-4.6-8.22,0,0,0-1,1.65-4.05v0h0a64.17,64.17,0,0,0,4.44-11.81c.56-2.23.05-3.36.13-5.4.12-3.14.06-4.73,3.3-6.1,1.83-.78,3.81-1.29,5.69-2,3.48-1.22,7.23-2.91,11-4.35l4.09-1.43a33.5,33.5,0,0,1,6.16-1.36c8.11-.9,14.73,4.18,18,11.19A50.83,50.83,0,0,1,163,134.65h0c0,.6,0,1.19-.07,1.76a61.51,61.51,0,0,1-1.35,10.44c4.29-.32,3,5.38,2.94,9-3.75,1.32-3.37-3-3.53-6.5-4.17,16.47-14.24,32.14-24,45.57-8.1,11.14-16.65,22-23.77,33.8a164.18,164.18,0,0,0-15.79,35.79c-7.54,24.07-9.64,51.7,2.73,74.57,10.42,19.25,28.87,34.85,50.17,40.3a79.61,79.61,0,0,0,29.64,1.9l.52-.06,1.33-.19,1.36-.2a93.21,93.21,0,0,0,38.85-16.48C240.87,351,254.48,330,260.3,307.77c5.39-20.58,3.57-43.16-3.11-63.27-.22-.66-.45-1.31-.69-2a3.66,3.66,0,0,0-1.33-1.63.47.47,0,0,1-.09-.09c-2.7-1.74-4.23-4.2-3.7-5.84a1.94,1.94,0,0,1,.22-.61,1,1,0,0,1,.12-.2c0-.06.06-.12.1-.17a7.91,7.91,0,0,0,.07-3.32c-3.12-7.5-6.5-14.93-9.51-22.42a146.63,146.63,0,0,1-8.21-26.83,3.33,3.33,0,0,0-1.08.43c-.08-.63.42-1,1-1.14a105.39,105.39,0,0,1-1.78-15.61c-.55-14.95,8.69-29.51,19.91-39a57.79,57.79,0,0,1,37-13.37c7.59-.08,15.36.73,21.92,4.89,5.46,3.46,9.92,8.72,13.55,14a68.08,68.08,0,0,1,11.65,37.07c.55,28.79-17.65,54.23-29,79.52a273.5,273.5,0,0,0-12.48,32.52c.33-.07.71-.12,1.09-.16a1.75,1.75,0,0,1-1.26.71c-4.47,15-7,30.52-5.48,46,2.09,21.11,11.53,45.38,33.63,52,23.11,6.95,48,1.47,64.29-16.64C402,346.15,405.47,324,406,302.4a1.38,1.38,0,0,0-1.12-.38c-.33-.69.39-1.07,1.15-1.05,0-2.33.07-4.66.07-7,0-5.62-.27-11.22-.63-16.8l-.4.06c0-.21.14-.36.37-.47-.62-9.32-1.53-18.61-2.16-27.94-.94-13.87-1.53-29.19,2-42.77a30.21,30.21,0,0,1,9.32-15.62c4.25-3.65,9.24-6,13.11-10.18a40.06,40.06,0,0,0,7.82-12.56c2.35-5.94,3-16.32,9.73-19.19,2.78-1.18,6.22-.46,9.19-.74a29.79,29.79,0,0,0,7-1.49c5-1.72,8.76-4.78,12.3-8.57a20.45,20.45,0,0,1,5.06-4.28c.56-1.23,1.51-2,1.76-3.24,1.41.06,1.73,1.06,1.42,2.13a18,18,0,0,1,4.06-.22c2.09.1,4.15.33,6.25.22a21.76,21.76,0,0,0,12.31-4.17,24.76,24.76,0,0,0,6.79-8.82c3.58-7.19,7.42-12.74,16.08-13.3l.5,0a83,83,0,0,1-7.75-3.43A13.69,13.69,0,0,0,515.46,104.84Zm-168.84,64c.07.57-1,.7-1.52.77C345,169,346.1,168.87,346.63,168.81Zm-2.95,24.53c-.63,3.89-1.57-3.65,0,0Zm-.4-86.63c.2,1.63-1.45,1.3-2.55,1.43C341.12,107,342.29,107.37,343.28,106.71ZM122.37,103c-.14-1.1,1.49-1.3,2.55-1.43C125.06,102.64,123.43,102.84,122.37,103Zm36.58-1.29c-.89,6.15-2.37-5.75,0,0Zm5.58,1c-1.66-4.72,2.92-3.09,5-3.93C169.35,101.51,167.86,102.77,164.53,102.65ZM158.11,183l.13,1.06C154.06,185.67,161.82,177.58,158.11,183ZM135.38,234c-.59,3.92-1.53-3.62,0,0Zm-11.95,9.72c-2.42,2.49,1.76-3.49,0,0ZM95.28,286.2c-1.56.77-1.64-4.18.72-2.82l.27,2.16C95.15,285.14,95.22,285.67,95.28,286.2Zm61.66,81.2c-4.69,2.2-2.7-4.05-3.61-6.71C155.1,361.59,156.54,364.14,156.94,367.4Zm-31.38-53.69c.2,1.63-1.5,1.26-2.49,2C122.87,314,124.57,314.37,125.56,313.71Zm-14.75-65.65c-.59,3.92-1.53-3.62,0,0Zm-7.18,21.75c-.4-3.22,1.8-3.49,2-6.29C108,264.89,105.19,269.08,103.63,269.81Zm5,4.31c2-1.33,2.22-4.08,4.91-4.42a18.5,18.5,0,0,1-1.88,6.81C109.53,277.31,110.18,273.92,108.59,274.12Zm2.58,60.58c-.14-1.1,1-.67,1.49-1.3C112.8,334.5,111.7,334.64,111.17,334.7Zm.58-57.13c3.72-1,2.57,3,2.37,5.75C110.93,284.25,112.55,279.67,111.75,277.57ZM115.18,327c-.89,6.15-2.37-5.7,0,0Zm.3,24.66c-3.92,3.76,2.58-5.82,0,0ZM114.2,248.76c-1-3.19,2-1.9,3.48-2.63C117.36,247.83,116.36,248.49,114.2,248.76Zm6.46,109.42,2.16-.27c-.46.64.14,1.1.71,1C124.27,360.5,119.88,360.47,120.67,358.18Zm1.78-16.65,2.69-.33c.33,2.69-1.25,2.89-1.05,4.52C121.28,345.48,121.08,343.89,122.44,341.53Zm2.24,9c.26-2.23,2.49-2,4.12-2.17C128.43,350.1,126.21,349.83,124.69,350.56Zm2-27.68c1.77.9,2,3.06,4.65,2.15C130.27,329.59,123.18,325.51,126.7,322.88Zm5.45,21.83c-.85,6.11-2.33-5.75,0,0Zm1.29-2.93c-.2-1.59,1.5-1.26,2.49-1.92C135.6,341.51,133.9,341.18,133.44,341.78ZM141,363.34c-.32,6.08-1.8-5.82,0,0Zm3.89-26.26c-1.56,5.12-4-5.54,0,0Zm.94,7.54c3.15-.93,3.62,2.86,4.53,5.48C147.21,351,145.82,348.47,145.87,344.61Zm4,9.93-.33-2.69C155.78,349.42,152.68,359.7,149.84,354.55Zm7,25.48c-1.9-2-2.83-5.15-3.84-8.87C158.27,369.43,158.68,377,156.86,380Zm9.92-30.32c-.2-1.63,1.49-1.3,2.53-2C169.51,349.37,167.82,349,166.78,349.71Zm49.83-9.51c-1.69,4.06-2-3,0,0Zm2.64-14c-.63,3.93-1.57-3.65,0,0Zm17.33-125c.2,1.63-1.46,1.26-2.49,2C233.89,201.5,235.59,201.83,236.58,201.17Zm-11.42-65.48c2.23.26-1.23,3.42-2.79,4.19C221.44,136.69,225.43,137.85,225.16,135.69Zm.76,46c-.91,5.62-2.33-5.75,0,0Zm-9.06-42.19c.14,1.1-1.56.73-2,1.37C214.7,139.72,215.76,139.59,216.86,139.45Zm-16.5,13c-.59,3.92-1.53-3.66,0,0Zm-2,36.46-.2-1.63,2.16-.27.2,1.63Zm2.3-16.75c-1.06.13-1.19-.93-2.29-.79C197.53,169.29,201.91,169.28,200.62,172.17Zm1.82,14.59c3.72-1,4.52,1.09,8.84.55C210,189.67,203.35,189.42,202.43,186.76ZM215,142.41l.27,2.16c-2.09.84-2.36-1.32-2.56-2.95C213.87,142,213.94,142.55,215,142.41Zm-1.55,80.3c-.14-1.1,1-1.24,1.49-1.3C215.12,222.5,214,222.06,213.49,222.7Zm.13,1.06,1.63-.2a.52.52,0,0,0,.6.46C216.68,226.11,212.3,226.12,213.62,223.76Zm4.32-.54-.27-2.16,1.63-.2.27,2.16Zm4.32-.54a3,3,0,0,1,3-2.57C225.45,221.75,223.89,222.49,222.26,222.69Zm-7.19-35.85c2.42-2.49,7-.87,11.46-.31C223,188.59,220,186.77,215.06,186.84Zm11.72-55.74-.2-1.63,1.63-.2.2,1.63Zm2.13,52.36c5.75-2.33,2.63,3.52,0,0Zm3.92-65.2c-.32,6.08-1.8-5.82,0,0Zm68.09-26c4.46.56,6.58,4.68,10.57,5.8C308.49,100.07,303.5,95.23,300.93,92.24Zm18,3.8c.39-1.17,1.06-.13,2.16-.27C320.74,97.47,319.08,97.1,318.95,96Zm8.71,3.84c-.13-1.06,1-.66,1.46-1.26C329.25,99.68,328.19,99.81,327.66,99.88Zm4,5.55c-1.69,4.06-3.62-2.86,0,0Zm-34.07,175c-.13-1.06,1-1.2,1.5-1.26C299.18,280.22,298,279.83,297.55,280.42ZM296.29,279c.72-2.86,8.57-1.65,8.47,2.21C300.51,282.25,301.47,276.67,296.29,279Zm27.16-27.75-.27-2.16,1.63-.2.27,2.16ZM339.93,247c-4-1.16-7.45-2.34-11.4-3.5C331.08,242,338,244.49,339.93,247Zm-12-8.35c-.63,3.89-1.57-3.65,0,0Zm-1.56-16.81c-.89,6.15-2.37-5.75,0,0ZM325,237.33c-.72,2.82-4.85.6-6-.36C319.67,234.14,322.9,238.13,325,237.33Zm13.18,13.17c-6.19,2.07-11.6-3-16.53-7.36a5.27,5.27,0,0,1,.34.61c-2.07,5.18-2.25-1.3-1-1.19a41.72,41.72,0,0,0-3.32-2.65C326,241,330.26,248.71,338.18,250.5ZM318,269.43c-.13-1.06.9-1.73,1.29-2.89C321.55,266.8,319.79,270.33,318,269.43Zm-2.62-21.06c-2.29-.79-5-.46-6.75-1.35C309.49,244.72,315.07,245.68,315.4,248.37Zm-6.73,51c2.32-3.6,3.13,2.88,0,0Zm1.78,58.86c-.13-1.06,1.5-1.26,2.49-2A2.57,2.57,0,0,1,310.46,358.22Zm5.39-85c-1.69,4.06-1.46-3.09,0,0Zm1.52-.4c-.14-1.1,1.45-1.3,1.32-2.36,1.17.39,1.43,2.55,1.57,3.65C318.17,274.92,319,272.63,317.37,272.83Zm2.19,4.65c.37-1.7,1.1-.14,1.63-.2C321.33,278.37,319.64,278,319.57,277.48ZM339,371.67c-.2-1.63,1.5-1.26,2.53-2C341.72,371.33,340,371,339,371.67Zm4.46.56c-.14-1.1,1.49-1.3,2-1.37C345.6,372,344,372.16,343.45,372.23Zm-.38-12c-.14-1.1,1.49-1.3,2.55-1.43C345.75,359.86,344.12,360.07,343.06,360.2Zm3.79-.47c3.49,1.76,9.37.49,10.44,4.74C352.17,362.91,348.38,363.38,346.85,359.73Zm20.25,8.44c.19-2.75,7.41-2,7.34,1.82C372.09,368.67,368.83,369.07,367.1,368.17Zm.6-13.11c.17-3.29,2.24,4.69,2.87.76,4.91-.07,7.48,2.92,8.61,7.7C375.06,361.3,371,359,367.7,355.06ZM398,241.94c-.2-1.63,1.5-1.26,2.49-2C400.66,241.6,399,241.27,398,241.94Zm5.87,33.82c.14,1.1-1,.71-1.49,1.3C402.21,276,403.31,275.82,403.84,275.76Z"/><path class="cls-1" d="M544.43,94.61c-.4-1.9-2.09-1.66-3.41-1.06-1.88.86-2.65,4.4-4.49,5.73-3,2.14-6.76,2.28-10.26,2.49-.89.05-1.78.12-2.65.22,3.46,1.22,6.92,2.49,10.43,3.71a10.22,10.22,0,0,0,4.73-1.87C540.67,102.44,545,97.3,544.43,94.61Z"/><path class="cls-1" d="M314.84,643.33c9.72,0,11.32-9,11.32-24.06q0-2.19,0-4.2a4.5,4.5,0,0,1-3,.85,3.3,3.3,0,0,1,3-2.47c-.45-11.55-2.68-18.24-11.22-18.24-9.72,0-11.32,9-11.32,24.06S305.28,643.33,314.84,643.33Zm2.62-33c-5.64-1.55,5.64-1.55,0,0Z"/><path class="cls-1" d="M159.58,609.36c-1-4.72-1.75-11.44-1.75-11.44h-.32s-1,6.72-1.91,11.44l-4.46,24.77H164Z"/><path class="cls-1" d="M169.14,540.22H36.55v166.1a34,34,0,0,1,5.83-4.8,30.8,30.8,0,0,1-3,7l1-.51a78.12,78.12,0,0,1,11.34-5.29l.11,0c1.65-.66,3.2-1.29,4.65-1.94,17.68-7.86,33.8-12.42,49.28-13.92A123.25,123.25,0,0,1,150.2,691a7.54,7.54,0,0,0-.31-2.35,3.87,3.87,0,0,1,2.08,2c1-2,2-3,2-5.59,1,0,.5,1,1,1.55,1,0,.5-1,1-1.55,2.57,2-2,5.09-4,5.63a5.38,5.38,0,0,1,.34.92c3.16.91,6.33,1.93,9.51,3.08,6.78,2.45,13.43,5.32,19.87,8.08,10.48,4.51,21.31,9.17,32.62,12,18.1,4.48,35.66,4.14,52.17-1,9.28-2.9,18.17-7.22,26.76-11.4,6.49-3.16,13.15-6.4,20-9.07a136.21,136.21,0,0,1,97-1.23,219.37,219.37,0,0,1,21.54,9.81c7.76,3.88,15.76,7.88,24.1,10.66a108.2,108.2,0,0,0,19.61,4.37V683.15a12.78,12.78,0,0,0-1.37,4.58c-3.9-2.46.1-7.65,1.37-9.91V540.22H454.76c.29.87.21,2,.52,3-1.59-.39-1.64-1.71-1.59-3h-190v1.49h-3.05v-1.49H169.14ZM45.89,592.88c1,0,1,1,1,1.55C45.89,594.43,46.4,593.38,45.89,592.88Zm4.83,82.51c1,0,1,1.55,1.55,2.55C50.72,677.94,50.72,676.4,50.72,675.39Zm47-134.72c-.5,5.14-5.14,2-8.19,3.59C90.53,541.71,94.63,541.71,97.72,540.67Zm-14.88,8.19c0,1.55-1.51,1.55-1.51,2.59C78.74,551.45,81.33,548.36,82.84,548.86Zm-3.56-1.51c1.51,2.55-1.55,2,0,5.6C77.24,552.46,74.65,546.82,79.28,547.36Zm-5.64,41.47c-4.64-2,5.64-3.05,0,0ZM59.3,549.91c0-1.55,1-1.55,1-3.09C63.9,546.31,63.4,550.91,59.3,549.91Zm50.39,32.18v37.38c.92.1,1.45.4,0,.9v12.7c0,19.86-13.29,28.21-31.92,28.64a6.9,6.9,0,0,1-1.08.89,2.89,2.89,0,0,1-1.37-.88,64.58,64.58,0,0,1-12-1.29l7.49-18.28a13,13,0,0,0,4.62.71c5.1,0,7.81-2.95,7.81-7.9V578h26.46v3.61a2.32,2.32,0,0,1,2.79-1A3,3,0,0,1,109.69,582.09ZM470.62,562.2c-1.51,0-1-1.55-1.51-2.55C470.62,559.65,470.12,561.15,470.62,562.2Zm-7.34,26.71c-4.64-2,5.64-3.05,0,0ZM155.61,555.55c1,0,1,.5,1,1v1.55c-1,0-1.55,0-2,1C153,561.15,155.07,556.55,155.61,555.55ZM131,590.87c2,1-1,3.59-3.05,3.59C128.95,593.42,130.49,592.92,131,590.87Zm-2,5.14a2.37,2.37,0,0,1-2.55,1.55A2.35,2.35,0,0,1,128.95,596Zm8.66,68.56c-3.59-2,3.09-1.55,0,0Zm42,1.55c-3.59-1,3.59-1,0,0Zm8.7,31.77c1.55,0,1,1.51,1.55,2.55C188.31,700.44,188.31,698.89,188.31,697.89Zm4.1-2.59c1.55,0,1,1.55,1.55,2.59C192.4,697.89,192.95,696.34,192.4,695.3Zm18.47-21.49c1.51,0,1,1.51,1.51,2.55C210.88,675.86,211.38,674.31,210.88,673.81Zm5.6,38.92h-2.55v-2.55h2.55Zm4.64,0c1-2,2.55,0,4.1,0C224.17,715.28,222.63,713.23,221.12,712.73Zm4.1-3.59c1.51,0,1,1.55,1.51,2.59C225.22,711.72,225.22,710.18,225.22,709.13Zm18.47-27.59c1.55,0,1,1.55,1.55,2.59C243.69,684.13,244.23,682.58,243.69,681.54Zm78.38,7.69c-3.05-1.55,3.59-2,0,0Zm33.31-130.12c1,0,.5,1,1,1.55C355.38,560.65,355.38,559.65,355.38,559.11Zm40,103.42c1.51,0,1,1.55,1.51,2.59C395.34,665.11,395.84,663.57,395.34,662.52Zm15.34-4.1c-1-.5-1-1.51-2.55-2C408.63,654.33,411.73,656.38,410.68,658.43Zm24.62,38.42c-2-.5-2.59-2-4.64-2.55C431.17,691.24,436.31,694.29,435.3,696.84ZM446,671.26c-2.55.5-2.55-2-3.09-4.1C444,665.62,445,670.72,446,671.26ZM443,660c-3.56-2,3.09-1.55,0,0ZM383,567.3v3.09h-3.59C379.46,568.34,380.5,567.3,383,567.3Zm-15.88-5.1a2.4,2.4,0,0,1-2.55,1.55A2.33,2.33,0,0,1,367.17,562.2ZM363.78,578h27.1l17.37,28.31c3.67,5.9,7.65,14.15,7.65,14.15h.32S415.9,612,415.9,605V578h25v82.57h-26.3l-2.85-4.71-.05,0c-1-.5-1-.89-.61-1.12l-4.35-7.19a10.17,10.17,0,0,0-.69,3.17c-1.55,0,0-3.56-2.55-3.05.35-1.07,1.67-1.16,2.13-2L395.5,628.94a121.32,121.32,0,0,1-6.85-13.56h-.32s.32,7.9.32,14.63v30.55H363.78Zm-7.36-36.27c1,.5-.54.5,0,1.51C354.88,543.22,355.38,541.71,356.42,541.71Zm-1,4.1c-3.05-1,3.59-2,0,0Zm-3.09,93.68c.5,0,.5,1,.5,1.55C352.29,641,352.29,640,352.29,639.49Zm-11.75-89.58h2v1.55h-2Zm-12.47-1.53,8.93,14-38.26,12-7.65-12.15Zm-13.23,28c31.08,0,37.78,21,37.78,42.94s-6.69,42.94-37.78,42.94c-17.82,0-27.65-7-32.77-17.08l-.47,0,.33-.31c-3.67-7.38-4.87-16.41-4.87-25.59C277.06,597.33,283.92,576.33,314.84,576.33ZM202,600.28a19.67,19.67,0,0,1,4.85-12.89,4.51,4.51,0,0,1,.48-.61h0c5.8-6.38,16-10.46,28.74-10.46,15.78,0,27.74,6.25,33.63,17.81l-21,9.2a13.87,13.87,0,0,0-13.07-9.67c-4.62,0-7.65,2.36-7.65,5.43,0,11.68,43.84,12,43.84,38.34,0,15.45-15.3,24.77-35.71,24.77-18,0-29.65-7.31-36.34-17.1l22.16-9.91c2.71,5.07,8.61,8.49,15.14,8.49,5.42,0,8.29-2.36,8.29-5.31C245.34,627.05,202,624.46,202,600.28Zm46.84,9c-2.55-1,.5-3.56.5-5.1C251.92,605.21,248.83,607.8,248.83,609.31ZM198,680H195.5v-2.59H198Zm-.84-19.4h-27.9l-1.59-9.2H147.15l-1.28,9.2H118.14L142.05,578h31.24Z"/><path class="cls-1" d="M436.42,767h39.1v-2c-1.26-.09-2.6-.2-4-.36l-.29,0a107.21,107.21,0,0,1-28.63-7.33,2.33,2.33,0,0,1-1.13.62c-1.89-1-2-1.53-1.47-1.69q-6.25-2.65-12.71-6.1c-14.11-7.56-31.24-15.6-51.23-17.94a109.57,109.57,0,0,0-23.26-.18l-3.42.38a119.79,119.79,0,0,0-24.5,5.79c-8,2.79-15.61,6.66-23,10.41-8.53,4.31-17.35,8.77-26.91,11.77a122.78,122.78,0,0,1-48.5,5,120.86,120.86,0,0,1-29-6.91c-4.19-1.41-8.46-3.07-12.66-4.92-2.65-1.1-5.37-2.25-8.09-3.4-14.9-6.31-30.31-12.84-47-14.64a114.57,114.57,0,0,0-19-.45,6.94,6.94,0,0,1-1.82.72c.11-.2.22-.42.33-.63a126.5,126.5,0,0,0-28.79,5.52,162,162,0,0,0-26.68,11.2c-1.68.88-3.4,1.89-5.05,2.87l-.07,0c-1.65,1-3.36,2-5.11,2.91-2.29,1.41-5.22,3.34-7,4.53V767H423.79c-1.1-1.19-2.33-2.34-2.33-4.46l3.59.5A67.48,67.48,0,0,1,436.42,767ZM123.26,748.59c-5.64-1.55,5.1-1.55,0,0Zm1.55,14.34c-.54-2.55,2.55-2,1.51-5.64C128.91,758.33,128.91,764,124.81,762.93Zm5.1-3.09c.5-3.05,5.14-.5,5.64,0C135.55,762.93,131,760.38,129.91,759.84Zm27.67-8.19H156v-1.51h1.55Zm8.19-4.1c1,0,1,1,1,1.55C165.78,749.09,166.28,748.09,165.78,747.55Zm36.87,17.93c1.55-4.6,4.64,3.09,0,0ZM340,741a4.81,4.81,0,0,1,4.64-2.55A4.88,4.88,0,0,1,340,741Zm15.88,3H354.5l-.13.08-.14-.08h-1.44v-2.55h3.09Zm45.6,10.82c-2.55.5,0-2.55.5-2.55C403.53,752.26,403.53,754.81,401.48,754.81ZM404.58,743c5.1,3.59-4.1,4.1,0,0Zm6.65,11.79h-1.55v-1.55h1.55Z"/><path class="cls-1" d="M475.51,733.64c-1.26-.09-2.6-.2-4-.36l-.29,0a99,99,0,0,1-13.89-2.5c-.76,3.78-3,7.81-4.8,11.86,1.12.42,2.24.82,3.38,1.2a108.2,108.2,0,0,0,19.61,4.37Z"/><path class="cls-1" d="M53.79,720.53c-1.7.89-3.43,1.91-5.11,2.9-1,.59-2,1.16-3,1.72l-.46.27c-2.5,1.46-6.37,4-8.72,5.56v10.35c1.87-1,3.48-1.85,4.51-2.35a84.07,84.07,0,0,1,10.69-4.9c1.68-.68,3.26-1.31,4.74-2,17.68-7.86,33.8-12.42,49.28-13.92,18-1.75,36.86.89,56.07,7.83,3.28,1.18,6.52,2.47,9.73,3.79l1.52.63c2.9,1.21,5.78,2.44,8.6,3.66,10.5,4.52,21.33,9.18,32.64,12,18.11,4.49,35.66,4.14,52.17-1,9.27-2.89,18.16-7.22,26.75-11.4,6.45-3.14,13.13-6.39,20-9.07a139.12,139.12,0,0,1,47-9.5,1.64,1.64,0,0,1,2.21-.3l0,.26a133.58,133.58,0,0,1,47.68,8.31,219.71,219.71,0,0,1,21.56,9.81c6.17,3.08,12.5,6.24,19,8.81q.11-.43.24-.87c-1.62-.73-2-2.21-2-4.79a3.59,3.59,0,0,1,2.89,2c.94-2.75,2.08-5.53,3.2-8.07a135.19,135.19,0,0,1-27.92-11.44c-14.11-7.56-31.24-15.6-51.23-17.94a115.3,115.3,0,0,0-51.17,6c-8,2.79-15.61,6.66-23,10.41-7.69,3.89-15.61,7.89-24.1,10.84a4.32,4.32,0,0,1,.31,1.64,3.58,3.58,0,0,1-3.13-.71,122.74,122.74,0,0,1-48.49,5q-2.15-.21-4.31-.53v.76h-2.55v-1.16A119,119,0,0,1,205,729.62h-1.36v-.42c-2-.63-4.09-1.33-6.23-2.08-4.19-1.41-8.46-3.07-12.66-4.92-2.66-1.1-5.38-2.25-8.1-3.4-5.61-2.38-11.29-4.78-17.09-7,0,.31,0,.62,0,.89-.6,0-.84-.56-.94-1.22-9.31-3.44-18.91-6.25-29-7.34a120.87,120.87,0,0,0-49.24,5.17,150.37,150.37,0,0,0-14.25,5.29c-.68,1.06-1.49,2.32-.11,5.33-1.24-.42-2.57-2.08-3.27-3.84q-1.61.73-3.22,1.5c-1.12,2.92,0,8.48-4.8,8.48V720Zm307.73-17c3.05,0,3.05,3.05,1,5.1C361,708.13,361.52,705.07,361.52,703.53Zm-24.58,10.82c5.64,1-3.59-.54,0,0Zm-9.74-7.69c2,.5,0,1,0,2.55C325.66,709.21,326.2,706.66,327.21,706.66Zm-1,6.65c-4.64-2,5.1-3.05,0,0Zm-2,1c-1,0-1-1-1-1.55C324.15,712.8,323.61,713.81,324.15,714.35Zm-21,5.1h3.09V722h-3.09ZM179.61,730.66c-4.6-2,5.64-3.09,0,0Zm-50.7-18.94c-.54,2.55-3.09,3.05-4.64,5.1C120.71,715.28,126.32,711.72,128.91,711.72Z"/><path class="cls-1" d="M107.74,463.14c8.52,0,13.64,4.16,16.39,10.73l10.62-4.16c-4.33-8.78-12.72-14.7-27-14.7-23.21,0-30.82,15.54-30.82,33.29s7.61,33.29,30.82,33.29c13.64,0,22-5.46,26.49-13.59l-10.49-4.44c-2.75,6-7.87,9.89-16,9.89-13.64,0-18.75-11-18.75-25.15S94.1,463.14,107.74,463.14Z"/><path class="cls-1" d="M192.85,520.66l4.59-13.22h26l4.72,13.22h12.72L217,455.93H204l-23.87,64.73H182c.81-1.28.62-3.14,2.58-3.14a3.15,3.15,0,0,1-.85,3.14ZM216,479.06c-3.5-1,3.5-1,0,0Zm-7.56-3.71c.92-2.5,2-6.38,2-6.38h.26s.92,3.88,1.84,6.38l7.06,20.22c2.5-2.72,3.11-7.07,8.41-7.51-2.28,3.18-3.34,7.64-8.11,8.36l1.16,3.33H199.93Zm-12.94,30.16c-3-1.47,3.5-2,0,0Zm-2,9.49c-4.48,3.5,3.5-3.5,0,0Z"/><path class="cls-1" d="M293.56,455.93v64.73h12.07v-23.4h29.11v-8.14H305.63v-25H340v-8.23H308c0,.66-.07,1.46-.07,2.15-1.08,0-1.13-1-1.08-2.15Zm7.85,61.59c.49,0,.49,1,1,1.47C301.41,519,301.41,518,301.41,517.53Z"/><polygon class="cls-1" points="431.26 437.44 402.8 447.24 406.47 452.79 435.71 444.09 431.26 437.44"/><polygon class="cls-1" points="395.19 520.66 441.62 520.66 441.62 512.52 407.26 512.52 407.26 494.58 436.5 494.58 436.5 486.45 407.26 486.45 407.26 464.16 441.62 464.16 441.62 455.93 395.19 455.93 395.19 520.66"/><path class="cls-1" d="M494.84,135V785.15H22.33V19.58H494.84V121.49l.49.31a11.85,11.85,0,0,0,6.33-2.41V12.76H15.51V792H501.66V133.84A10,10,0,0,1,494.84,135Z"/></svg>